<?xml version="1.0" standalone="no"?>
<!DOCTYPE svg PUBLIC "-//W3C//DTD SVG 20010904//EN"
 "http://www.w3.org/TR/2001/REC-SVG-20010904/DTD/svg10.dtd">
<svg version="1.0" xmlns="http://www.w3.org/2000/svg"
 width="613.000000pt" height="586.000000pt" viewBox="0 0 613.000000 586.000000"
 preserveAspectRatio="xMidYMid meet">
<metadata>
Created by potrace 1.16, written by Peter Selinger 2001-2019
</metadata>
<g transform="translate(0.000000,586.000000) scale(0.100000,-0.100000)"
fill="#000000" stroke="none">
<path d="M1646 5692 c-3 -5 -42 -13 -86 -16 -44 -4 -80 -11 -80 -15 0 -5 -23
-11 -51 -15 -54 -7 -122 -27 -176 -52 -17 -8 -36 -14 -42 -14 -6 0 -19 -4 -29
-9 -9 -5 -53 -26 -97 -47 -44 -21 -81 -41 -83 -46 -2 -4 -8 -8 -14 -8 -13 0
-139 -75 -164 -98 -10 -10 -37 -31 -59 -47 -36 -26 -184 -173 -210 -207 -6 -7
-24 -31 -41 -53 -17 -22 -40 -56 -50 -75 -11 -19 -28 -49 -40 -65 -40 -58
-124 -290 -124 -344 0 -15 -6 -33 -12 -40 -17 -16 -18 -451 -2 -472 7 -8 14
-36 17 -64 3 -27 12 -68 20 -90 9 -22 11 -41 6 -43 -5 -2 -2 -11 7 -19 8 -9
13 -22 10 -29 -3 -8 -2 -14 3 -14 5 0 12 -11 15 -25 4 -14 11 -25 16 -25 6 0
10 -9 10 -19 0 -11 7 -26 15 -35 8 -8 18 -28 21 -45 4 -16 12 -32 20 -35 8 -3
14 -12 14 -20 0 -7 7 -16 15 -20 8 -3 15 -10 15 -16 0 -6 9 -21 21 -33 12 -12
33 -38 48 -57 28 -37 144 -150 167 -163 8 -4 24 -18 37 -30 43 -41 178 -137
194 -137 6 0 13 -4 15 -9 3 -11 204 -131 217 -131 5 0 11 -3 13 -7 5 -11 79
-49 111 -57 15 -3 27 -10 27 -15 0 -5 14 -12 30 -16 17 -4 30 -11 30 -16 0 -5
9 -9 19 -9 11 0 21 -3 23 -7 3 -9 90 -53 104 -53 5 -1 27 -9 49 -20 22 -11 46
-19 53 -20 6 0 12 -3 12 -8 0 -7 12 -13 120 -57 36 -14 79 -33 97 -41 17 -8
36 -14 42 -14 6 0 11 -4 11 -10 0 -5 8 -10 18 -10 10 0 22 -4 27 -8 6 -5 26
-14 45 -21 19 -7 49 -19 65 -26 17 -8 48 -21 70 -30 22 -9 56 -25 76 -36 20
-10 46 -19 58 -19 11 0 21 -3 21 -8 0 -4 15 -13 33 -21 80 -34 125 -54 163
-72 22 -10 45 -19 51 -19 6 0 13 -3 15 -7 2 -5 53 -33 113 -63 61 -30 112 -58
115 -61 3 -3 12 -9 20 -12 141 -65 460 -346 460 -406 0 -6 6 -14 13 -18 6 -4
21 -26 32 -48 11 -22 22 -42 25 -45 8 -8 40 -129 51 -195 13 -75 5 -385 -11
-415 -12 -23 -14 -29 -24 -102 -4 -27 -11 -48 -17 -48 -5 0 -9 -9 -9 -19 0
-11 -4 -22 -9 -25 -5 -3 -12 -17 -15 -31 -7 -26 -67 -133 -100 -178 -39 -51
-150 -162 -204 -201 -52 -38 -208 -126 -223 -126 -5 0 -32 -11 -61 -25 -78
-36 -237 -73 -413 -95 -91 -11 -391 -11 -475 0 -117 16 -340 66 -354 80 -6 6
-16 10 -23 10 -23 0 -261 119 -312 156 -27 19 -53 34 -59 34 -6 0 -12 3 -14 8
-1 4 -24 24 -50 45 -79 64 -232 218 -289 292 -29 39 -59 74 -66 78 -7 4 -13
12 -13 17 0 8 -60 105 -80 127 -5 7 -10 17 -10 23 0 5 -4 10 -8 10 -4 0 -14
16 -21 35 -7 19 -17 35 -22 35 -5 0 -9 5 -9 11 0 12 -40 100 -50 109 -3 3 -11
23 -19 45 -12 34 -30 79 -71 170 -5 11 -21 58 -35 105 -15 47 -31 95 -36 108
-5 13 -9 32 -9 42 0 11 -4 20 -9 20 -4 0 -11 20 -14 45 -4 25 -14 56 -23 70
-21 32 -61 34 -69 3 -3 -13 -4 -405 -3 -873 l3 -850 28 -3 c31 -4 53 14 63 52
3 14 10 26 15 26 5 0 9 6 9 14 0 7 16 31 34 52 98 110 129 124 273 124 63 0
113 -5 126 -12 12 -7 40 -13 62 -15 22 -2 56 -9 75 -17 20 -8 57 -17 83 -21
26 -4 47 -11 47 -16 0 -5 7 -9 15 -9 8 0 23 -4 33 -9 17 -10 131 -44 187 -57
17 -4 35 -10 40 -14 6 -4 29 -11 52 -15 24 -4 45 -11 49 -16 3 -5 14 -9 25 -9
10 0 27 -4 37 -9 25 -14 187 -49 262 -57 36 -3 71 -12 79 -18 20 -16 649 -15
682 1 13 6 70 16 127 22 57 6 111 15 120 20 9 5 41 12 69 16 29 4 55 11 59 16
3 5 16 9 29 9 13 0 26 4 29 9 3 5 21 12 40 15 20 4 48 13 63 21 15 8 34 15 41
15 7 0 32 8 55 19 23 10 57 24 75 32 17 8 32 17 32 21 0 3 13 9 30 13 16 4 32
10 35 14 2 5 29 21 60 36 30 16 55 32 55 37 0 4 7 8 15 8 8 0 15 3 15 8 0 4
21 21 45 37 25 17 45 33 45 38 0 4 6 7 13 7 8 0 25 12 38 28 14 15 38 38 54
52 37 32 113 115 140 153 11 16 30 41 42 55 13 15 23 33 23 40 0 6 3 12 8 12
4 0 12 9 17 19 57 110 95 189 95 197 0 6 7 25 16 43 19 38 42 115 55 186 6 28
15 75 22 105 7 31 12 130 12 227 0 95 3 173 8 173 4 0 7 7 7 15 0 8 -4 15 -9
15 -10 0 -28 66 -37 137 -3 29 -10 55 -15 59 -5 3 -9 14 -9 26 0 11 -7 36 -16
56 -9 21 -20 46 -24 57 -32 82 -73 154 -123 220 -61 81 -94 122 -107 132 -12
10 89 12 478 13 l492 0 0 -1157 c0 -819 -3 -1154 -11 -1143 -8 11 -12 12 -16
3 -3 -10 -72 -13 -293 -13 -272 0 -290 -1 -299 -19 -7 -13 -6 -24 3 -37 13
-18 47 -18 952 -15 842 2 939 4 949 18 10 13 9 20 -4 35 -14 17 -36 18 -297
18 -248 0 -283 2 -288 16 -3 9 -7 988 -8 2177 -1 1189 -5 2124 -8 2077 -5 -65
-7 -41 -8 108 l-2 192 304 0 c301 0 305 0 311 21 4 12 2 26 -4 32 -13 13
-1828 25 -1876 13 -21 -5 -26 -12 -23 -34 l3 -27 308 -3 307 -2 0 -1095 c0
-764 -3 -1095 -11 -1095 -5 0 -7 5 -4 10 4 6 -8 10 -30 10 -22 0 -34 -4 -30
-10 3 -5 -3 -10 -15 -10 -12 0 -18 5 -15 10 3 6 -1 10 -10 10 -9 0 -13 -4 -10
-10 3 -5 -1 -10 -10 -10 -9 0 -13 5 -10 10 3 6 -3 10 -14 10 -12 0 -21 -4 -21
-10 0 -7 -150 -10 -431 -10 -284 0 -428 3 -424 10 3 6 -4 10 -17 10 -13 0 -43
19 -68 41 -25 23 -56 48 -70 57 -14 10 -35 26 -47 36 -12 11 -48 36 -80 57
-32 22 -63 43 -70 49 -7 5 -15 10 -18 10 -4 0 -21 11 -38 24 -18 13 -68 43
-112 66 -44 24 -91 50 -105 60 -14 10 -42 23 -62 31 -21 7 -38 16 -38 20 0 4
-12 10 -27 14 -15 3 -30 10 -33 13 -5 8 -74 41 -175 87 -33 15 -88 40 -121 56
-34 16 -67 29 -73 29 -6 0 -11 5 -11 10 0 6 -7 10 -15 10 -8 0 -15 4 -15 10 0
5 -7 7 -15 4 -9 -4 -15 0 -15 7 0 11 -3 11 -10 -1 -6 -10 -10 246 -10 733 l0
747 299 0 c256 0 300 2 305 15 8 22 -3 42 -27 50 -12 4 -426 9 -920 12 -975 6
-951 7 -945 -46 l3 -26 288 -3 287 -2 1 -33 c0 -27 2 -29 9 -12 5 11 8 -230 8
-565 0 -322 -3 -576 -5 -566 -4 15 -7 16 -14 5 -6 -9 -12 -10 -16 -4 -5 6 -57
35 -118 65 -60 30 -112 58 -115 61 -3 4 -30 21 -60 40 -168 101 -368 287 -424
393 -11 20 -23 36 -27 36 -4 0 -10 14 -14 30 -4 17 -10 30 -14 30 -4 0 -14 26
-21 58 -7 31 -18 63 -24 71 -15 19 -15 423 0 442 6 8 16 40 23 72 7 31 16 57
21 57 5 0 11 14 15 30 4 17 11 30 16 30 5 0 9 5 9 11 0 32 209 269 237 269 6
0 13 3 15 8 4 9 126 82 138 82 5 0 10 4 12 8 3 9 79 37 143 53 22 6 48 15 58
20 9 5 44 12 77 16 34 3 63 10 66 14 3 5 27 9 54 9 27 0 52 5 55 10 4 6 68 10
161 10 96 0 154 -4 154 -10 0 -5 24 -10 54 -10 30 0 57 -4 60 -9 3 -4 34 -12
68 -15 35 -4 67 -11 73 -15 5 -5 28 -13 50 -19 59 -16 139 -45 145 -52 3 -3
41 -24 85 -45 44 -22 85 -44 92 -50 7 -5 18 -14 25 -20 41 -31 115 -91 125
-101 7 -7 16 -14 20 -16 8 -3 57 -57 113 -124 55 -65 120 -154 120 -164 0 -5
4 -10 8 -10 5 0 22 -27 38 -60 16 -33 32 -60 37 -60 4 0 7 -7 7 -15 0 -8 4
-15 9 -15 5 0 12 -13 16 -30 4 -16 10 -30 14 -30 4 0 13 -22 20 -50 7 -27 17
-50 22 -50 5 0 9 -8 9 -17 0 -10 7 -31 15 -47 8 -15 15 -35 15 -42 0 -8 4 -14
9 -14 6 0 13 -21 17 -47 3 -27 11 -53 16 -60 15 -19 28 -83 16 -83 -5 0 -3 -7
5 -15 9 -8 13 -25 10 -37 -4 -19 -3 -20 6 -8 9 12 11 11 12 -10 1 -14 1 -29 0
-34 -3 -13 32 -35 55 -36 16 0 23 8 28 31 8 41 8 1307 0 1337 -5 19 -12 22
-37 20 -17 -2 -35 -11 -41 -23 -6 -11 -13 -22 -16 -25 -3 -3 -11 -16 -18 -30
-7 -14 -22 -36 -33 -50 -12 -14 -17 -19 -13 -11 5 9 3 12 -4 7 -7 -4 -12 -14
-12 -22 0 -8 -1 -14 -3 -14 -1 0 -27 -9 -57 -20 -59 -21 -186 -28 -218 -11 -9
5 -39 15 -67 21 -27 6 -86 28 -130 49 -73 35 -150 70 -200 91 -11 5 -36 15
-55 24 -56 24 -161 56 -185 56 -11 0 -25 4 -31 9 -22 22 -165 34 -446 38 -169
2 -299 0 -302 -5z m3701 -4519 c-1 -461 -2 -87 -2 832 0 919 1 1296 2 838 2
-457 2 -1209 0 -1670z"/>
<path d="M1707 2413 c-4 -3 -7 -407 -7 -897 0 -837 1 -892 18 -906 28 -25 88
-60 102 -60 6 0 26 -6 43 -14 46 -21 89 -28 201 -33 63 -3 103 0 109 6 6 6 21
11 34 11 13 0 31 4 41 9 9 5 42 21 73 35 38 18 59 34 63 49 3 12 6 353 6 758
0 573 -3 739 -12 750 -18 21 -153 99 -172 99 -9 0 -16 4 -16 9 0 13 -207 111
-234 111 -9 0 -16 4 -16 9 0 5 -10 11 -22 14 -84 19 -156 39 -170 48 -21 11
-32 11 -41 2z"/>
</g>
</svg>
